<svg xmlns="http://www.w3.org/2000/svg" xmlns:xlink="http://www.w3.org/1999/xlink" width="4000" zoomAndPan="magnify" viewBox="0 0 3000 749.999995" height="1000" preserveAspectRatio="xMidYMid meet" version="1.0"><defs><g/><clipPath id="e9063a84fa"><path d="M 29.851562 0 L 680 0 L 680 750 L 29.851562 750 Z M 29.851562 0 " clip-rule="nonzero"/></clipPath></defs><rect x="-300" width="3600" fill="#ffffff" y="-74.999999" height="899.999994" fill-opacity="1"/><rect x="-300" width="3600" fill="#ffffff" y="-74.999999" height="899.999994" fill-opacity="1"/><g fill="#000000" fill-opacity="1"><g transform="translate(580.12633, 640.124989)"><g><path d="M 355.6875 0 L 176.703125 -235.09375 L 176.703125 0 L 47.015625 0 L 47.015625 -532.390625 L 176.703125 -532.390625 L 176.703125 -298.8125 L 354.171875 -532.390625 L 506.609375 -532.390625 L 300.328125 -271.5 L 514.1875 0 Z M 355.6875 0 "/></g></g></g><g fill="#000000" fill-opacity="1"><g transform="translate(1082.181271, 640.124989)"><g><path d="M 176.703125 -561.203125 L 176.703125 0 L 47.015625 0 L 47.015625 -561.203125 Z M 176.703125 -561.203125 "/></g></g></g><g fill="#000000" fill-opacity="1"><g transform="translate(1279.363056, 640.124989)"><g><path d="M 21.234375 -212.34375 C 21.234375 -255.832031 29.445312 -294.003906 45.875 -326.859375 C 62.3125 -359.722656 84.6875 -385.003906 113 -402.703125 C 141.3125 -420.398438 172.910156 -429.25 207.796875 -429.25 C 237.628906 -429.25 263.796875 -423.179688 286.296875 -411.046875 C 308.796875 -398.910156 326.113281 -382.984375 338.25 -363.265625 L 338.25 -423.1875 L 467.921875 -423.1875 L 467.921875 0 L 338.25 0 L 338.25 -59.90625 C 325.601562 -40.1875 308.03125 -24.257812 285.53125 -12.125 C 263.03125 0 236.867188 6.0625 207.046875 6.0625 C 172.660156 6.0625 141.3125 -2.910156 113 -20.859375 C 84.6875 -38.804688 62.3125 -64.335938 45.875 -97.453125 C 29.445312 -130.566406 21.234375 -168.863281 21.234375 -212.34375 Z M 338.25 -211.59375 C 338.25 -243.945312 329.269531 -269.476562 311.3125 -288.1875 C 293.363281 -306.894531 271.5 -316.25 245.71875 -316.25 C 219.9375 -316.25 198.066406 -307.019531 180.109375 -288.5625 C 162.160156 -270.113281 153.1875 -244.707031 153.1875 -212.34375 C 153.1875 -179.988281 162.160156 -154.332031 180.109375 -135.375 C 198.066406 -116.414062 219.9375 -106.9375 245.71875 -106.9375 C 271.5 -106.9375 293.363281 -116.285156 311.3125 -134.984375 C 329.269531 -153.691406 338.25 -179.226562 338.25 -211.59375 Z M 338.25 -211.59375 "/></g></g></g><g fill="#000000" fill-opacity="1"><g transform="translate(1767.766932, 640.124989)"><g><path d="M 176.703125 -352.65625 C 191.867188 -375.90625 210.828125 -394.226562 233.578125 -407.625 C 256.335938 -421.03125 281.617188 -427.734375 309.421875 -427.734375 L 309.421875 -290.46875 L 273.78125 -290.46875 C 241.414062 -290.46875 217.144531 -283.515625 200.96875 -269.609375 C 184.789062 -255.703125 176.703125 -231.304688 176.703125 -196.421875 L 176.703125 0 L 47.015625 0 L 47.015625 -423.1875 L 176.703125 -423.1875 Z M 176.703125 -352.65625 "/></g></g></g><g fill="#000000" fill-opacity="1"><g transform="translate(2065.814645, 640.124989)"><g><path d="M 237.375 -121.34375 L 329.140625 -423.1875 L 467.171875 -423.1875 L 317 0 L 156.984375 0 L 6.828125 -423.1875 L 145.609375 -423.1875 Z M 237.375 -121.34375 "/></g></g></g><g fill="#000000" fill-opacity="1"><g transform="translate(2514.023758, 640.124989)"><g><path d="M 239.65625 6.0625 C 198.195312 6.0625 160.90625 -2.78125 127.78125 -20.46875 C 94.664062 -38.164062 68.628906 -63.445312 49.671875 -96.3125 C 30.710938 -129.175781 21.234375 -167.601562 21.234375 -211.59375 C 21.234375 -255.070312 30.835938 -293.367188 50.046875 -326.484375 C 69.265625 -359.597656 95.554688 -385.003906 128.921875 -402.703125 C 162.296875 -420.398438 199.710938 -429.25 241.171875 -429.25 C 282.628906 -429.25 320.039062 -420.398438 353.40625 -402.703125 C 386.78125 -385.003906 413.070312 -359.597656 432.28125 -326.484375 C 451.488281 -293.367188 461.09375 -255.070312 461.09375 -211.59375 C 461.09375 -168.113281 451.359375 -129.8125 431.890625 -96.6875 C 412.429688 -63.570312 385.890625 -38.164062 352.265625 -20.46875 C 318.648438 -2.78125 281.113281 6.0625 239.65625 6.0625 Z M 239.65625 -106.171875 C 264.425781 -106.171875 285.53125 -115.269531 302.96875 -133.46875 C 320.414062 -151.675781 329.140625 -177.71875 329.140625 -211.59375 C 329.140625 -245.46875 320.671875 -271.503906 303.734375 -289.703125 C 286.796875 -307.898438 265.941406 -317 241.171875 -317 C 215.890625 -317 194.90625 -308.023438 178.21875 -290.078125 C 161.53125 -272.128906 153.1875 -245.96875 153.1875 -211.59375 C 153.1875 -177.71875 161.398438 -151.675781 177.828125 -133.46875 C 194.265625 -115.269531 214.875 -106.171875 239.65625 -106.171875 Z M 239.65625 -106.171875 "/></g></g></g><g clip-path="url(#e9063a84fa)"><path fill="#059669" d="M 135.042969 32.546875 C 134.632812 32.121094 134.246094 31.671875 133.882812 31.203125 C 133.515625 30.734375 133.175781 30.246094 132.859375 29.746094 C 132.542969 29.242188 132.253906 28.722656 131.992188 28.191406 C 131.726562 27.660156 131.492188 27.113281 131.285156 26.558594 C 131.074219 26.003906 130.894531 25.4375 130.746094 24.863281 C 130.59375 24.289062 130.472656 23.707031 130.378906 23.121094 C 130.289062 22.535156 130.226562 21.945312 130.191406 21.351562 C 130.160156 20.757812 130.160156 20.164062 130.1875 19.570312 C 130.214844 18.976562 130.269531 18.386719 130.359375 17.800781 C 130.445312 17.210938 130.5625 16.632812 130.710938 16.054688 C 130.855469 15.480469 131.03125 14.914062 131.234375 14.355469 C 131.4375 13.796875 131.667969 13.25 131.929688 12.714844 C 132.1875 12.183594 132.472656 11.664062 132.785156 11.15625 C 133.097656 10.652344 133.433594 10.164062 133.792969 9.691406 C 134.15625 9.21875 134.539062 8.769531 134.945312 8.335938 C 135.355469 7.902344 135.78125 7.492188 136.230469 7.101562 C 136.679688 6.714844 137.144531 6.347656 137.632812 6.003906 C 138.117188 5.664062 138.617188 5.347656 139.136719 5.054688 C 139.65625 4.765625 140.1875 4.5 140.730469 4.261719 C 141.273438 4.027344 141.828125 3.816406 142.394531 3.636719 C 142.960938 3.453125 143.535156 3.300781 144.117188 3.179688 C 144.695312 3.054688 145.28125 2.964844 145.871094 2.898438 C 146.464844 2.835938 147.054688 2.800781 147.648438 2.796875 C 148.242188 2.792969 148.835938 2.820312 149.425781 2.878906 C 150.019531 2.933594 150.605469 3.019531 151.1875 3.136719 C 151.769531 3.25 152.347656 3.394531 152.914062 3.570312 C 153.480469 3.742188 154.039062 3.945312 154.585938 4.175781 C 155.132812 4.40625 155.667969 4.664062 156.191406 4.949219 C 156.710938 5.234375 157.214844 5.542969 157.707031 5.878906 C 158.195312 6.214844 158.667969 6.574219 159.121094 6.957031 C 159.574219 7.34375 160.007812 7.746094 160.421875 8.175781 C 160.832031 8.601562 161.222656 9.050781 161.589844 9.515625 L 354.460938 231.359375 L 545.953125 6.289062 C 546.328125 5.851562 546.71875 5.433594 547.132812 5.03125 C 547.550781 4.632812 547.980469 4.253906 548.433594 3.894531 C 548.886719 3.539062 549.351562 3.203125 549.839844 2.890625 C 550.324219 2.578125 550.820312 2.292969 551.332031 2.03125 C 551.847656 1.765625 552.371094 1.53125 552.90625 1.320312 C 553.441406 1.109375 553.988281 0.921875 554.542969 0.765625 C 555.097656 0.609375 555.65625 0.476562 556.222656 0.375 C 556.792969 0.273438 557.363281 0.199219 557.9375 0.152344 C 558.511719 0.105469 559.085938 0.0859375 559.660156 0.0976562 C 560.238281 0.109375 560.8125 0.148438 561.382812 0.214844 C 561.957031 0.28125 562.523438 0.375 563.085938 0.496094 C 563.648438 0.617188 564.207031 0.769531 564.753906 0.945312 C 565.300781 1.121094 565.839844 1.328125 566.367188 1.554688 C 566.898438 1.785156 567.414062 2.042969 567.914062 2.320312 C 568.417969 2.601562 568.90625 2.90625 569.378906 3.234375 C 569.855469 3.5625 570.308594 3.914062 570.75 4.289062 C 571.1875 4.660156 571.605469 5.054688 572.007812 5.472656 C 572.40625 5.886719 572.785156 6.320312 573.144531 6.769531 C 573.5 7.222656 573.835938 7.691406 574.144531 8.175781 C 574.457031 8.660156 574.746094 9.160156 575.007812 9.671875 C 575.269531 10.183594 575.507812 10.710938 575.71875 11.246094 C 575.925781 11.78125 576.113281 12.328125 576.269531 12.882812 C 576.425781 13.433594 576.554688 13.996094 576.65625 14.5625 C 576.761719 15.128906 576.835938 15.699219 576.878906 16.273438 C 576.925781 16.847656 576.945312 17.425781 576.933594 18 C 576.921875 18.578125 576.882812 19.152344 576.816406 19.722656 C 576.75 20.296875 576.65625 20.863281 576.53125 21.425781 C 576.410156 21.988281 576.261719 22.542969 576.082031 23.09375 C 575.90625 23.640625 575.703125 24.179688 575.472656 24.707031 C 575.242188 25.234375 574.984375 25.75 574.703125 26.253906 C 574.425781 26.757812 574.117188 27.246094 573.789062 27.71875 C 573.460938 28.191406 573.109375 28.648438 572.734375 29.085938 L 354.757812 285.410156 Z M 354.757812 164.335938 L 466.390625 33.050781 C 467.078125 32.160156 467.671875 31.21875 468.175781 30.21875 C 468.679688 29.214844 469.082031 28.175781 469.386719 27.097656 C 469.695312 26.019531 469.894531 24.921875 469.988281 23.808594 C 470.085938 22.691406 470.074219 21.574219 469.957031 20.460938 C 469.839844 19.347656 469.617188 18.253906 469.292969 17.183594 C 468.964844 16.109375 468.539062 15.078125 468.015625 14.085938 C 467.492188 13.097656 466.878906 12.164062 466.179688 11.292969 C 465.476562 10.417969 464.699219 9.617188 463.84375 8.894531 C 462.992188 8.167969 462.078125 7.53125 461.101562 6.980469 C 460.125 6.429688 459.105469 5.976562 458.042969 5.621094 C 456.980469 5.265625 455.894531 5.015625 454.78125 4.867188 C 453.671875 4.71875 452.558594 4.675781 451.4375 4.742188 C 450.320312 4.808594 449.21875 4.976562 448.132812 5.253906 C 447.046875 5.53125 445.996094 5.90625 444.980469 6.382812 C 443.96875 6.859375 443.007812 7.425781 442.101562 8.085938 C 441.195312 8.746094 440.359375 9.484375 439.597656 10.304688 L 354.460938 110.398438 L 263.769531 6.089844 C 263.390625 5.65625 262.996094 5.238281 262.574219 4.84375 C 262.15625 4.449219 261.71875 4.074219 261.265625 3.71875 C 260.808594 3.367188 260.339844 3.039062 259.851562 2.730469 C 259.363281 2.425781 258.859375 2.140625 258.34375 1.882812 C 257.832031 1.628906 257.304688 1.394531 256.765625 1.191406 C 256.226562 0.984375 255.679688 0.804688 255.125 0.652344 C 254.566406 0.503906 254.007812 0.378906 253.4375 0.28125 C 252.871094 0.183594 252.300781 0.117188 251.722656 0.0742188 C 251.148438 0.0351562 250.574219 0.0234375 250 0.0390625 C 249.421875 0.0546875 248.847656 0.0976562 248.277344 0.171875 C 247.707031 0.246094 247.140625 0.34375 246.578125 0.472656 C 246.015625 0.601562 245.460938 0.757812 244.914062 0.9375 C 244.367188 1.121094 243.832031 1.332031 243.304688 1.566406 C 242.78125 1.800781 242.265625 2.0625 241.765625 2.347656 C 241.265625 2.632812 240.78125 2.941406 240.3125 3.277344 C 239.84375 3.609375 239.390625 3.964844 238.953125 4.34375 C 238.519531 4.722656 238.105469 5.121094 237.707031 5.539062 C 237.3125 5.957031 236.9375 6.394531 236.585938 6.851562 C 236.234375 7.304688 235.902344 7.777344 235.597656 8.265625 C 235.289062 8.753906 235.007812 9.253906 234.753906 9.769531 C 234.496094 10.285156 234.265625 10.8125 234.058594 11.351562 C 233.851562 11.890625 233.675781 12.4375 233.523438 12.992188 C 233.371094 13.550781 233.25 14.109375 233.152344 14.679688 C 233.054688 15.246094 232.988281 15.820312 232.949219 16.394531 C 232.90625 16.96875 232.894531 17.542969 232.910156 18.121094 C 232.929688 18.695312 232.972656 19.269531 233.046875 19.839844 C 233.117188 20.414062 233.21875 20.980469 233.347656 21.539062 C 233.476562 22.101562 233.632812 22.65625 233.816406 23.203125 C 234 23.75 234.207031 24.285156 234.445312 24.8125 C 234.679688 25.335938 234.941406 25.847656 235.226562 26.347656 C 235.511719 26.847656 235.824219 27.335938 236.15625 27.804688 C 236.492188 28.273438 236.847656 28.726562 237.222656 29.160156 Z M 675.527344 716.761719 L 378.042969 374.601562 L 668.515625 33.097656 C 668.875 32.660156 669.214844 32.203125 669.53125 31.726562 C 669.847656 31.253906 670.136719 30.765625 670.40625 30.265625 C 670.675781 29.765625 670.921875 29.25 671.140625 28.726562 C 671.359375 28.199219 671.550781 27.664062 671.71875 27.121094 C 671.886719 26.578125 672.027344 26.027344 672.140625 25.46875 C 672.253906 24.910156 672.339844 24.347656 672.398438 23.78125 C 672.457031 23.214844 672.488281 22.648438 672.492188 22.078125 C 672.496094 21.507812 672.472656 20.941406 672.421875 20.375 C 672.371094 19.808594 672.292969 19.246094 672.1875 18.683594 C 672.082031 18.125 671.949219 17.574219 671.789062 17.027344 C 671.628906 16.480469 671.445312 15.941406 671.234375 15.414062 C 671.023438 14.886719 670.785156 14.367188 670.523438 13.863281 C 670.261719 13.359375 669.976562 12.867188 669.664062 12.386719 C 669.355469 11.910156 669.023438 11.449219 668.671875 11.003906 C 668.316406 10.558594 667.941406 10.128906 667.542969 9.722656 C 667.148438 9.3125 666.734375 8.921875 666.300781 8.554688 C 665.867188 8.1875 665.417969 7.839844 664.949219 7.515625 C 664.480469 7.1875 664 6.886719 663.503906 6.609375 C 663.007812 6.332031 662.5 6.078125 661.976562 5.847656 C 661.457031 5.617188 660.925781 5.414062 660.382812 5.238281 C 659.84375 5.0625 659.292969 4.910156 658.738281 4.785156 C 658.183594 4.660156 657.625 4.566406 657.058594 4.496094 C 656.492188 4.425781 655.925781 4.382812 655.359375 4.367188 C 654.789062 4.351562 654.21875 4.367188 653.652344 4.40625 C 653.085938 4.445312 652.519531 4.515625 651.957031 4.609375 C 651.398438 4.707031 650.84375 4.828125 650.292969 4.976562 C 649.742188 5.125 649.203125 5.300781 648.671875 5.503906 C 648.136719 5.703125 647.617188 5.929688 647.105469 6.183594 C 646.597656 6.4375 646.097656 6.710938 645.617188 7.011719 C 645.132812 7.3125 644.664062 7.636719 644.210938 7.980469 C 643.761719 8.328125 643.324219 8.695312 642.910156 9.082031 C 642.492188 9.472656 642.097656 9.878906 641.71875 10.304688 L 354.460938 348.03125 L 60.710938 10.167969 C 60.332031 9.734375 59.933594 9.316406 59.515625 8.921875 C 59.097656 8.527344 58.660156 8.152344 58.203125 7.800781 C 57.75 7.445312 57.277344 7.117188 56.789062 6.8125 C 56.300781 6.503906 55.800781 6.222656 55.285156 5.964844 C 54.769531 5.707031 54.242188 5.476562 53.707031 5.273438 C 53.167969 5.066406 52.621094 4.890625 52.066406 4.738281 C 51.507812 4.585938 50.949219 4.460938 50.378906 4.367188 C 49.8125 4.269531 49.242188 4.199219 48.667969 4.160156 C 48.089844 4.121094 47.515625 4.109375 46.941406 4.125 C 46.363281 4.140625 45.792969 4.183594 45.21875 4.257812 C 44.648438 4.332031 44.082031 4.429688 43.519531 4.558594 C 42.960938 4.6875 42.40625 4.84375 41.859375 5.023438 C 41.3125 5.207031 40.777344 5.417969 40.253906 5.652344 C 39.726562 5.886719 39.214844 6.148438 38.714844 6.433594 C 38.214844 6.71875 37.730469 7.027344 37.257812 7.363281 C 36.789062 7.695312 36.335938 8.050781 35.902344 8.429688 C 35.46875 8.808594 35.050781 9.207031 34.65625 9.625 C 34.261719 10.042969 33.886719 10.480469 33.535156 10.933594 C 33.183594 11.390625 32.851562 11.859375 32.546875 12.347656 C 32.238281 12.835938 31.957031 13.339844 31.703125 13.855469 C 31.445312 14.367188 31.214844 14.894531 31.007812 15.433594 C 30.800781 15.972656 30.625 16.519531 30.472656 17.074219 C 30.320312 17.628906 30.195312 18.191406 30.101562 18.757812 C 30.003906 19.328125 29.9375 19.898438 29.894531 20.472656 C 29.855469 21.046875 29.84375 21.621094 29.859375 22.199219 C 29.875 22.773438 29.921875 23.347656 29.992188 23.917969 C 30.066406 24.488281 30.167969 25.054688 30.292969 25.617188 C 30.421875 26.179688 30.578125 26.734375 30.761719 27.277344 C 30.945312 27.824219 31.152344 28.359375 31.386719 28.886719 C 31.621094 29.414062 31.882812 29.925781 32.167969 30.425781 C 32.453125 30.925781 32.765625 31.410156 33.097656 31.878906 C 33.429688 32.351562 33.785156 32.800781 34.164062 33.238281 L 331.652344 375.414062 L 41.191406 716.902344 C 40.816406 717.339844 40.46875 717.796875 40.140625 718.269531 C 39.808594 718.742188 39.507812 719.230469 39.226562 719.734375 C 38.945312 720.234375 38.691406 720.75 38.460938 721.277344 C 38.230469 721.808594 38.027344 722.34375 37.847656 722.894531 C 37.671875 723.441406 37.523438 723.996094 37.398438 724.558594 C 37.277344 725.121094 37.183594 725.691406 37.117188 726.261719 C 37.050781 726.832031 37.011719 727.40625 37 727.984375 C 36.992188 728.558594 37.007812 729.132812 37.054688 729.707031 C 37.101562 730.28125 37.175781 730.851562 37.277344 731.417969 C 37.378906 731.988281 37.507812 732.546875 37.667969 733.101562 C 37.824219 733.65625 38.007812 734.199219 38.21875 734.734375 C 38.429688 735.273438 38.667969 735.796875 38.929688 736.308594 C 39.191406 736.820312 39.476562 737.320312 39.789062 737.804688 C 40.101562 738.289062 40.433594 738.757812 40.792969 739.207031 C 41.148438 739.660156 41.527344 740.09375 41.929688 740.507812 C 42.328125 740.921875 42.746094 741.316406 43.1875 741.691406 C 43.625 742.0625 44.082031 742.414062 44.554688 742.742188 C 45.027344 743.070312 45.515625 743.375 46.015625 743.65625 C 46.519531 743.9375 47.035156 744.191406 47.5625 744.421875 C 48.09375 744.652344 48.628906 744.855469 49.179688 745.03125 C 49.726562 745.207031 50.28125 745.359375 50.84375 745.480469 C 51.40625 745.605469 51.972656 745.699219 52.546875 745.765625 C 53.117188 745.832031 53.691406 745.871094 54.269531 745.878906 C 54.84375 745.890625 55.417969 745.871094 55.992188 745.828125 C 56.566406 745.78125 57.136719 745.707031 57.703125 745.605469 C 58.269531 745.5 58.832031 745.371094 59.386719 745.214844 C 59.941406 745.058594 60.484375 744.875 61.019531 744.664062 C 61.558594 744.453125 62.082031 744.214844 62.59375 743.953125 C 63.105469 743.691406 63.605469 743.402344 64.089844 743.09375 C 64.574219 742.78125 65.042969 742.445312 65.492188 742.089844 C 65.945312 741.730469 66.378906 741.351562 66.792969 740.953125 C 67.207031 740.554688 67.601562 740.132812 67.972656 739.695312 L 355.234375 401.96875 L 648.984375 739.84375 C 649.367188 740.265625 649.765625 740.667969 650.1875 741.046875 C 650.609375 741.429688 651.046875 741.789062 651.503906 742.128906 C 651.960938 742.46875 652.429688 742.785156 652.917969 743.078125 C 653.402344 743.371094 653.902344 743.640625 654.414062 743.886719 C 654.929688 744.132812 655.453125 744.351562 655.984375 744.546875 C 656.519531 744.742188 657.0625 744.910156 657.613281 745.050781 C 658.160156 745.191406 658.71875 745.308594 659.277344 745.394531 C 659.839844 745.484375 660.402344 745.542969 660.972656 745.578125 C 661.539062 745.609375 662.105469 745.617188 662.675781 745.59375 C 663.242188 745.574219 663.808594 745.523438 664.371094 745.449219 C 664.933594 745.371094 665.492188 745.269531 666.042969 745.136719 C 666.597656 745.007812 667.144531 744.851562 667.679688 744.667969 C 668.21875 744.484375 668.746094 744.277344 669.261719 744.042969 C 669.78125 743.808594 670.285156 743.546875 670.777344 743.265625 C 671.269531 742.980469 671.75 742.675781 672.210938 742.34375 C 672.675781 742.015625 673.121094 741.664062 673.550781 741.292969 C 673.976562 740.917969 674.386719 740.527344 674.777344 740.113281 C 675.167969 739.699219 675.539062 739.269531 675.886719 738.820312 C 676.238281 738.375 676.5625 737.910156 676.867188 737.429688 C 677.171875 736.949219 677.453125 736.457031 677.707031 735.949219 C 677.964844 735.441406 678.195312 734.921875 678.402344 734.394531 C 678.605469 733.863281 678.785156 733.324219 678.941406 732.777344 C 679.09375 732.230469 679.222656 731.679688 679.320312 731.121094 C 679.421875 730.558594 679.496094 729.996094 679.539062 729.429688 C 679.585938 728.863281 679.605469 728.296875 679.597656 727.730469 C 679.585938 727.160156 679.550781 726.59375 679.484375 726.03125 C 679.421875 725.464844 679.332031 724.90625 679.210938 724.351562 C 679.09375 723.792969 678.949219 723.246094 678.777344 722.703125 C 678.605469 722.164062 678.40625 721.628906 678.183594 721.109375 C 677.960938 720.585938 677.714844 720.074219 677.441406 719.574219 C 677.167969 719.078125 676.871094 718.59375 676.554688 718.125 C 676.234375 717.652344 675.890625 717.199219 675.527344 716.761719 Z M 354.945312 464.703125 L 136.957031 721.027344 C 136.585938 721.464844 136.234375 721.921875 135.90625 722.394531 C 135.578125 722.867188 135.273438 723.355469 134.992188 723.859375 C 134.710938 724.363281 134.457031 724.878906 134.226562 725.40625 C 134 725.933594 133.796875 726.472656 133.617188 727.019531 C 133.441406 727.570312 133.292969 728.125 133.167969 728.6875 C 133.046875 729.25 132.953125 729.816406 132.886719 730.390625 C 132.820312 730.960938 132.78125 731.535156 132.773438 732.113281 C 132.761719 732.6875 132.78125 733.261719 132.828125 733.835938 C 132.875 734.410156 132.949219 734.980469 133.050781 735.546875 C 133.152344 736.113281 133.28125 736.675781 133.441406 737.230469 C 133.597656 737.785156 133.78125 738.328125 133.992188 738.863281 C 134.203125 739.398438 134.441406 739.925781 134.703125 740.4375 C 134.96875 740.949219 135.253906 741.449219 135.566406 741.933594 C 135.878906 742.417969 136.210938 742.882812 136.570312 743.335938 C 136.925781 743.789062 137.304688 744.21875 137.707031 744.632812 C 138.105469 745.050781 138.527344 745.441406 138.964844 745.816406 C 139.402344 746.1875 139.859375 746.539062 140.332031 746.867188 C 140.804688 747.195312 141.292969 747.5 141.796875 747.78125 C 142.300781 748.0625 142.816406 748.316406 143.34375 748.546875 C 143.871094 748.773438 144.410156 748.976562 144.957031 749.15625 C 145.507812 749.332031 146.0625 749.480469 146.625 749.601562 C 147.1875 749.726562 147.753906 749.820312 148.328125 749.886719 C 148.898438 749.953125 149.472656 749.992188 150.050781 750 C 150.625 750.011719 151.199219 749.992188 151.773438 749.945312 C 152.347656 749.898438 152.917969 749.824219 153.484375 749.722656 C 154.050781 749.621094 154.613281 749.492188 155.167969 749.332031 C 155.71875 749.175781 156.265625 748.992188 156.800781 748.78125 C 157.335938 748.570312 157.859375 748.332031 158.375 748.070312 C 158.886719 747.804688 159.386719 747.519531 159.871094 747.207031 C 160.355469 746.894531 160.820312 746.5625 161.273438 746.203125 C 161.726562 745.847656 162.15625 745.46875 162.570312 745.066406 C 162.984375 744.667969 163.378906 744.246094 163.753906 743.808594 L 355.234375 518.742188 L 548.105469 740.484375 C 548.480469 740.917969 548.878906 741.332031 549.296875 741.730469 C 549.714844 742.125 550.152344 742.5 550.609375 742.851562 C 551.0625 743.207031 551.535156 743.535156 552.023438 743.84375 C 552.511719 744.148438 553.011719 744.429688 553.527344 744.6875 C 554.042969 744.945312 554.570312 745.175781 555.109375 745.382812 C 555.648438 745.589844 556.195312 745.765625 556.75 745.917969 C 557.304688 746.070312 557.867188 746.195312 558.433594 746.292969 C 559.003906 746.386719 559.574219 746.457031 560.148438 746.496094 C 560.722656 746.539062 561.300781 746.550781 561.875 746.535156 C 562.453125 746.519531 563.023438 746.472656 563.597656 746.402344 C 564.167969 746.328125 564.734375 746.226562 565.296875 746.101562 C 565.859375 745.972656 566.410156 745.816406 566.957031 745.632812 C 567.503906 745.449219 568.042969 745.242188 568.566406 745.007812 C 569.09375 744.769531 569.605469 744.511719 570.105469 744.226562 C 570.605469 743.9375 571.089844 743.628906 571.5625 743.296875 C 572.03125 742.960938 572.484375 742.605469 572.917969 742.230469 C 573.351562 741.851562 573.769531 741.453125 574.164062 741.035156 C 574.558594 740.613281 574.933594 740.179688 575.285156 739.722656 C 575.640625 739.265625 575.96875 738.796875 576.277344 738.308594 C 576.582031 737.820312 576.863281 737.316406 577.121094 736.800781 C 577.378906 736.285156 577.609375 735.757812 577.8125 735.222656 C 578.019531 734.683594 578.199219 734.136719 578.347656 733.578125 C 578.5 733.023438 578.625 732.460938 578.722656 731.894531 C 578.816406 731.324219 578.886719 730.753906 578.925781 730.179688 C 578.964844 729.605469 578.976562 729.03125 578.960938 728.453125 C 578.945312 727.878906 578.898438 727.304688 578.828125 726.734375 C 578.753906 726.160156 578.652344 725.59375 578.523438 725.035156 C 578.394531 724.472656 578.242188 723.917969 578.058594 723.371094 C 577.875 722.824219 577.664062 722.289062 577.429688 721.761719 C 577.195312 721.238281 576.933594 720.726562 576.648438 720.226562 C 576.359375 719.722656 576.050781 719.238281 575.71875 718.769531 C 575.382812 718.300781 575.027344 717.847656 574.648438 717.414062 Z M 354.945312 585.664062 L 243.3125 716.949219 C 242.925781 717.386719 242.5625 717.84375 242.222656 718.316406 C 241.882812 718.789062 241.566406 719.277344 241.273438 719.78125 C 240.980469 720.285156 240.714844 720.804688 240.472656 721.335938 C 240.234375 721.867188 240.019531 722.410156 239.832031 722.960938 C 239.644531 723.511719 239.488281 724.074219 239.355469 724.640625 C 239.222656 725.210938 239.121094 725.785156 239.046875 726.363281 C 238.972656 726.941406 238.925781 727.519531 238.910156 728.105469 C 238.894531 728.6875 238.90625 729.269531 238.949219 729.851562 C 238.988281 730.433594 239.058594 731.011719 239.160156 731.585938 C 239.257812 732.160156 239.386719 732.726562 239.539062 733.289062 C 239.695312 733.851562 239.878906 734.40625 240.089844 734.949219 C 240.300781 735.492188 240.535156 736.023438 240.800781 736.542969 C 241.0625 737.066406 241.351562 737.570312 241.664062 738.0625 C 241.976562 738.554688 242.316406 739.027344 242.675781 739.488281 C 243.039062 739.945312 243.421875 740.382812 243.824219 740.804688 C 244.230469 741.222656 244.652344 741.625 245.097656 742 C 245.542969 742.378906 246.003906 742.734375 246.484375 743.066406 C 246.960938 743.398438 247.457031 743.703125 247.96875 743.988281 C 248.476562 744.269531 249 744.527344 249.535156 744.757812 C 250.070312 744.988281 250.617188 745.191406 251.171875 745.367188 C 251.726562 745.546875 252.292969 745.695312 252.863281 745.8125 C 253.433594 745.933594 254.007812 746.027344 254.585938 746.089844 C 255.167969 746.152344 255.746094 746.1875 256.332031 746.191406 C 256.914062 746.199219 257.496094 746.175781 258.078125 746.121094 C 258.65625 746.070312 259.234375 745.988281 259.808594 745.878906 C 260.378906 745.769531 260.945312 745.632812 261.503906 745.464844 C 262.0625 745.300781 262.613281 745.105469 263.152344 744.886719 C 263.691406 744.664062 264.21875 744.417969 264.734375 744.144531 C 265.25 743.871094 265.75 743.574219 266.234375 743.25 C 266.722656 742.929688 267.191406 742.582031 267.640625 742.214844 C 268.09375 741.84375 268.523438 741.453125 268.9375 741.039062 C 269.347656 740.628906 269.738281 740.195312 270.109375 739.746094 L 355.234375 639.714844 L 445.921875 744.023438 C 446.304688 744.457031 446.703125 744.871094 447.125 745.265625 C 447.542969 745.660156 447.984375 746.03125 448.441406 746.382812 C 448.898438 746.734375 449.371094 747.0625 449.859375 747.371094 C 450.351562 747.675781 450.851562 747.957031 451.371094 748.210938 C 451.886719 748.464844 452.414062 748.695312 452.957031 748.902344 C 453.496094 749.105469 454.042969 749.28125 454.601562 749.429688 C 455.15625 749.582031 455.71875 749.703125 456.289062 749.800781 C 456.859375 749.894531 457.429688 749.960938 458.003906 750 C 458.582031 750.039062 459.15625 750.046875 459.734375 750.03125 C 460.308594 750.011719 460.882812 749.964844 461.457031 749.890625 C 462.027344 749.816406 462.59375 749.714844 463.15625 749.585938 C 463.71875 749.457031 464.273438 749.300781 464.820312 749.113281 C 465.367188 748.929688 465.902344 748.71875 466.429688 748.484375 C 466.953125 748.246094 467.46875 747.984375 467.96875 747.695312 C 468.46875 747.410156 468.953125 747.097656 469.421875 746.761719 C 469.890625 746.429688 470.34375 746.070312 470.777344 745.691406 C 471.210938 745.3125 471.628906 744.914062 472.023438 744.492188 C 472.417969 744.074219 472.792969 743.632812 473.144531 743.175781 C 473.496094 742.722656 473.824219 742.25 474.132812 741.757812 C 474.4375 741.269531 474.71875 740.765625 474.976562 740.25 C 475.230469 739.734375 475.460938 739.207031 475.667969 738.667969 C 475.871094 738.128906 476.050781 737.578125 476.199219 737.023438 C 476.351562 736.464844 476.472656 735.902344 476.570312 735.335938 C 476.664062 734.765625 476.734375 734.195312 476.773438 733.617188 C 476.8125 733.042969 476.824219 732.464844 476.804688 731.890625 C 476.789062 731.3125 476.742188 730.738281 476.667969 730.167969 C 476.597656 729.59375 476.496094 729.027344 476.367188 728.464844 C 476.238281 727.902344 476.082031 727.347656 475.898438 726.800781 C 475.714844 726.253906 475.503906 725.71875 475.265625 725.191406 C 475.03125 724.667969 474.769531 724.152344 474.484375 723.652344 C 474.195312 723.152344 473.886719 722.667969 473.550781 722.199219 C 473.214844 721.726562 472.859375 721.273438 472.480469 720.839844 Z M 43.230469 616.859375 C 43.667969 617.230469 44.125 617.578125 44.601562 617.90625 C 45.074219 618.234375 45.5625 618.535156 46.066406 618.816406 C 46.570312 619.09375 47.089844 619.347656 47.617188 619.574219 C 48.144531 619.800781 48.683594 620.003906 49.234375 620.179688 C 49.78125 620.355469 50.335938 620.503906 50.902344 620.621094 C 51.464844 620.742188 52.03125 620.835938 52.605469 620.902344 C 53.175781 620.964844 53.75 621 54.324219 621.011719 C 54.902344 621.019531 55.476562 621 56.050781 620.949219 C 56.625 620.902344 57.195312 620.828125 57.761719 620.722656 C 58.328125 620.617188 58.886719 620.488281 59.441406 620.328125 C 59.992188 620.167969 60.539062 619.984375 61.074219 619.769531 C 61.609375 619.558594 62.132812 619.320312 62.644531 619.054688 C 63.15625 618.792969 63.652344 618.503906 64.136719 618.191406 C 64.621094 617.878906 65.089844 617.542969 65.539062 617.183594 C 65.988281 616.824219 66.421875 616.445312 66.835938 616.042969 C 67.246094 615.644531 67.640625 615.222656 68.011719 614.785156 L 273.847656 371.285156 L 60.484375 135.078125 C 60.097656 134.652344 59.691406 134.246094 59.265625 133.859375 C 58.839844 133.472656 58.394531 133.105469 57.933594 132.761719 C 57.472656 132.417969 56.992188 132.097656 56.5 131.800781 C 56.007812 131.507812 55.5 131.234375 54.980469 130.988281 C 54.460938 130.742188 53.929688 130.519531 53.386719 130.324219 C 52.84375 130.132812 52.292969 129.964844 51.734375 129.824219 C 51.175781 129.683594 50.613281 129.570312 50.042969 129.484375 C 49.476562 129.398438 48.902344 129.34375 48.328125 129.3125 C 47.753906 129.285156 47.175781 129.285156 46.601562 129.3125 C 46.027344 129.339844 45.453125 129.394531 44.886719 129.480469 C 44.316406 129.5625 43.75 129.675781 43.191406 129.8125 C 42.632812 129.953125 42.082031 130.117188 41.542969 130.3125 C 41 130.503906 40.46875 130.726562 39.945312 130.96875 C 39.425781 131.214844 38.917969 131.484375 38.425781 131.78125 C 37.929688 132.078125 37.453125 132.394531 36.988281 132.738281 C 36.527344 133.082031 36.082031 133.445312 35.652344 133.832031 C 35.226562 134.214844 34.820312 134.621094 34.429688 135.046875 C 34.042969 135.472656 33.679688 135.917969 33.335938 136.378906 C 32.992188 136.84375 32.671875 137.320312 32.375 137.8125 C 32.078125 138.304688 31.804688 138.8125 31.558594 139.332031 C 31.3125 139.851562 31.089844 140.382812 30.894531 140.925781 C 30.703125 141.46875 30.535156 142.019531 30.390625 142.574219 C 30.25 143.132812 30.136719 143.699219 30.054688 144.265625 C 29.96875 144.835938 29.910156 145.410156 29.882812 145.984375 C 29.851562 146.558594 29.851562 147.132812 29.878906 147.710938 C 29.90625 148.285156 29.960938 148.855469 30.042969 149.425781 C 30.128906 149.996094 30.238281 150.558594 30.378906 151.117188 C 30.515625 151.675781 30.683594 152.226562 30.875 152.769531 C 31.066406 153.3125 31.285156 153.84375 31.53125 154.367188 C 31.777344 154.886719 32.046875 155.394531 32.34375 155.890625 C 32.636719 156.382812 32.957031 156.863281 33.296875 157.324219 C 33.640625 157.789062 34.003906 158.234375 34.390625 158.660156 L 227.148438 372.050781 L 41.105469 592.078125 C 40.734375 592.515625 40.382812 592.976562 40.058594 593.449219 C 39.730469 593.925781 39.429688 594.414062 39.152344 594.917969 C 38.875 595.421875 38.621094 595.941406 38.394531 596.46875 C 38.164062 597 37.964844 597.539062 37.789062 598.085938 C 37.617188 598.636719 37.46875 599.191406 37.351562 599.757812 C 37.230469 600.320312 37.136719 600.886719 37.074219 601.460938 C 37.011719 602.03125 36.976562 602.605469 36.96875 603.183594 C 36.960938 603.757812 36.980469 604.335938 37.03125 604.910156 C 37.082031 605.484375 37.15625 606.050781 37.261719 606.617188 C 37.367188 607.183594 37.5 607.746094 37.660156 608.296875 C 37.820312 608.851562 38.007812 609.394531 38.222656 609.929688 C 38.4375 610.464844 38.675781 610.988281 38.941406 611.5 C 39.207031 612.011719 39.496094 612.507812 39.808594 612.992188 C 40.125 613.476562 40.460938 613.941406 40.820312 614.390625 C 41.179688 614.839844 41.5625 615.273438 41.964844 615.683594 C 42.367188 616.097656 42.789062 616.488281 43.230469 616.859375 Z M 60.871094 492.195312 L 163.078125 371.285156 L 60.546875 257.714844 C 60.160156 257.285156 59.753906 256.878906 59.328125 256.488281 C 58.902344 256.101562 58.460938 255.734375 57.996094 255.386719 C 57.535156 255.042969 57.058594 254.722656 56.5625 254.421875 C 56.070312 254.125 55.5625 253.851562 55.042969 253.601562 C 54.519531 253.355469 53.988281 253.132812 53.449219 252.9375 C 52.90625 252.738281 52.355469 252.570312 51.796875 252.429688 C 51.234375 252.285156 50.671875 252.171875 50.101562 252.085938 C 49.53125 252 48.957031 251.941406 48.382812 251.910156 C 47.804688 251.882812 47.230469 251.878906 46.652344 251.90625 C 46.078125 251.933594 45.503906 251.988281 44.933594 252.070312 C 44.363281 252.152344 43.796875 252.261719 43.238281 252.402344 C 42.675781 252.539062 42.125 252.707031 41.582031 252.898438 C 41.039062 253.089844 40.503906 253.308594 39.984375 253.554688 C 39.460938 253.800781 38.953125 254.070312 38.457031 254.363281 C 37.960938 254.660156 37.480469 254.980469 37.015625 255.320312 C 36.550781 255.664062 36.105469 256.027344 35.675781 256.414062 C 35.25 256.800781 34.839844 257.207031 34.449219 257.632812 C 34.0625 258.058594 33.695312 258.503906 33.351562 258.964844 C 33.003906 259.425781 32.683594 259.90625 32.386719 260.398438 C 32.089844 260.894531 31.816406 261.402344 31.566406 261.921875 C 31.320312 262.441406 31.097656 262.972656 30.902344 263.515625 C 30.707031 264.058594 30.539062 264.609375 30.394531 265.167969 C 30.253906 265.726562 30.140625 266.292969 30.054688 266.863281 C 29.96875 267.433594 29.910156 268.007812 29.878906 268.582031 C 29.851562 269.160156 29.847656 269.734375 29.875 270.3125 C 29.902344 270.886719 29.957031 271.460938 30.039062 272.03125 C 30.125 272.601562 30.234375 273.167969 30.375 273.726562 C 30.511719 274.285156 30.679688 274.839844 30.871094 275.382812 C 31.0625 275.925781 31.28125 276.457031 31.527344 276.980469 C 31.773438 277.503906 32.042969 278.011719 32.339844 278.507812 C 32.636719 279.003906 32.953125 279.480469 33.296875 279.945312 C 33.640625 280.410156 34.003906 280.855469 34.390625 281.285156 L 116.375 372.050781 L 34.003906 469.492188 C 33.640625 469.933594 33.304688 470.390625 32.988281 470.863281 C 32.675781 471.339844 32.382812 471.828125 32.113281 472.328125 C 31.847656 472.832031 31.605469 473.347656 31.386719 473.875 C 31.167969 474.398438 30.976562 474.933594 30.808594 475.480469 C 30.644531 476.023438 30.503906 476.578125 30.394531 477.136719 C 30.28125 477.695312 30.195312 478.257812 30.136719 478.824219 C 30.082031 479.390625 30.050781 479.957031 30.046875 480.527344 C 30.046875 481.097656 30.070312 481.664062 30.125 482.234375 C 30.175781 482.800781 30.257812 483.363281 30.363281 483.921875 C 30.472656 484.480469 30.605469 485.035156 30.765625 485.582031 C 30.929688 486.128906 31.113281 486.664062 31.328125 487.191406 C 31.542969 487.71875 31.78125 488.238281 32.042969 488.742188 C 32.308594 489.246094 32.59375 489.738281 32.90625 490.214844 C 33.21875 490.691406 33.550781 491.152344 33.90625 491.597656 C 34.261719 492.042969 34.640625 492.46875 35.035156 492.878906 C 35.433594 493.285156 35.851562 493.671875 36.285156 494.039062 C 36.71875 494.410156 37.171875 494.753906 37.640625 495.078125 C 38.109375 495.402344 38.59375 495.703125 39.089844 495.980469 C 39.589844 496.253906 40.097656 496.507812 40.621094 496.734375 C 41.144531 496.960938 41.675781 497.164062 42.21875 497.339844 C 42.757812 497.515625 43.308594 497.664062 43.863281 497.785156 C 44.421875 497.90625 44.980469 498.003906 45.546875 498.070312 C 46.113281 498.140625 46.679688 498.179688 47.25 498.191406 C 47.820312 498.203125 48.386719 498.1875 48.957031 498.148438 C 49.523438 498.105469 50.089844 498.035156 50.648438 497.9375 C 51.210938 497.839844 51.765625 497.714844 52.316406 497.5625 C 52.863281 497.414062 53.40625 497.234375 53.9375 497.03125 C 54.46875 496.828125 54.988281 496.597656 55.5 496.34375 C 56.007812 496.089844 56.503906 495.808594 56.988281 495.507812 C 57.46875 495.207031 57.9375 494.878906 58.386719 494.53125 C 58.839844 494.183594 59.273438 493.816406 59.6875 493.425781 C 60.101562 493.035156 60.496094 492.625 60.871094 492.195312 Z M 60.871094 492.195312 " fill-opacity="1" fill-rule="nonzero"/></g></svg>